<svg xmlns="http://www.w3.org/2000/svg" viewBox="0 0 509.287 509.287" enable-background="new 0 0 509.287 509.287"><circle cx="254.644" cy="254.644" r="254.644" fill="#F0582F"/><path fill="#F1F3F7" d="M444.2 253.3h-23.75c0-91.56-74.6-166.16-166.15-166.16S88.16 161.74 88.16 253.3H64.42c0-104.45 85.1-189.56 189.55-189.56 105.1 0 190.22 85.1 190.22 189.55z"/><g fill="#4F5565"><circle cx="254.644" cy="253.287" r="145.123"/><circle cx="254.644" cy="253.287" r="145.123"/><path d="M303.47 207.17s8.14 52.56 63.4 82.4v-31.53c0-62.05-50.18-112.24-112.23-112.24-62.05 0-112.23 50.2-112.23 112.24v36.62c134.62-17.64 161.07-87.5 161.07-87.5z"/></g><path fill="#F6CEB0" d="M303.47 207.17s-26.45 69.85-161.4 87.82v38.3c0 62.06 50.18 112.24 112.23 112.24 62.05 0 112.24-50.18 112.24-112.23v-43.73c-54.93-29.84-63.07-82.4-63.07-82.4z"/><path fill="#F1F3F7" d="M76.63 230.23c-13.9 0-25.1 11.2-25.1 25.1v74.93c0 13.9 11.2 25.1 25.1 25.1s25.1-11.2 25.1-25.1v-74.94c.33-13.9-11.2-25.1-25.1-25.1z"/><path fill="#6EB1E1" d="M50.86 255.32c-20.68 0-37.3 16.62-37.3 37.3s16.62 37.3 37.3 37.3h.68v-74.6h-.68z"/><path fill="#F1F3F7" d="M432.66 355.35c13.9 0 25.1-11.2 25.1-25.1v-74.93c0-13.9-11.2-25.1-25.1-25.1s-25.1 11.2-25.1 25.1v74.94c-.33 13.9 11.2 25.1 25.1 25.1z"/><path fill="#6EB1E1" d="M458.43 329.92c20.68 0 37.3-16.62 37.3-37.3s-16.62-37.3-37.3-37.3h-.68v74.6h.68z"/></svg>